<?xml version="1.0" encoding="UTF-8"?>
<svg id="Layer_2" data-name="Layer 2" xmlns="http://www.w3.org/2000/svg" viewBox="0 0 509.03 176.94">
  <defs>
    <style>
      .cls-1 {
        fill: #f6881f;
      }

      .cls-2 {
        fill: #939598;
      }

      .cls-3 {
        fill: #223167;
      }
    </style>
  </defs>
  <g id="Layer_1-2" data-name="Layer 1">
    <g>
      <path class="cls-3" d="m64.7,107.91c0-43.79,95.09-79.28,212.4-79.28,22.14,0,43.49,1.27,63.56,3.61-30.87-6.53-66.54-10.26-104.55-10.26C118.81,21.98,23.72,57.48,23.72,101.27c0,35.52,62.58,65.59,148.84,75.67-64.39-13.62-107.85-39.43-107.85-69.03Z"/>
      <path class="cls-1" d="m118.84,24.95C48.45,37.86,0,64.89,0,96.14c0,11.98,7.14,23.34,19.88,33.53-8.25-9.14-12.75-19-12.75-29.29,0-32.61,45.2-60.96,111.7-75.43Z"/>
      <path class="cls-3" d="m359.38,52.64h0c-2.83-8.23-11.79-12.61-20.02-9.78h0c8.23-2.83,12.61-11.79,9.78-20.02h0c2.83,8.23,11.79,12.61,20.02,9.78h0c-8.23,2.83-12.61,11.79-9.78,20.02Z"/>
      <path class="cls-1" d="m218.27,72.61h0c-4.35-7.54-13.99-10.12-21.52-5.77h0c7.54-4.35,10.12-13.99,5.77-21.52h0c4.35,7.54,13.99,10.12,21.52,5.77h0c-7.54,4.35-10.12,13.99-5.77,21.52Z"/>
      <path class="cls-1" d="m140.35,13.07h0c-2.08-3.61-6.7-4.85-10.31-2.76h0C133.65,8.23,134.89,3.61,132.81,0h0c2.08,3.61,6.7,4.85,10.31,2.76h0c-3.61,2.08-4.85,6.7-2.76,10.31Z"/>
      <g>
        <path class="cls-3" d="m108.84,146.99v-60.53h26.77c2.78,0,5.36.57,7.72,1.7,2.36,1.14,4.4,2.67,6.14,4.6,1.73,1.93,3.07,4.09,4.01,6.48.94,2.39,1.41,4.83,1.41,7.33s-.44,5.02-1.32,7.37c-.88,2.36-2.15,4.42-3.79,6.18-1.65,1.76-3.58,3.13-5.8,4.09l13.81,22.76h-12.96l-12.45-20.29h-11.76v20.29h-11.76Zm11.76-30.61h14.75c1.48,0,2.78-.44,3.92-1.32,1.14-.88,2.05-2.06,2.73-3.54.68-1.48,1.02-3.13,1.02-4.94,0-1.93-.4-3.62-1.19-5.07-.8-1.45-1.8-2.6-3.03-3.45-1.22-.85-2.54-1.28-3.96-1.28h-14.24v19.61Z"/>
        <path class="cls-3" d="m181.99,86.46h11.94l22.25,60.53h-12.11l-5.03-15.09h-22.22l-5.06,15.09h-12.11l22.34-60.53Zm14.29,37.17l-8.33-24.98-8.37,24.98h16.7Z"/>
        <path class="cls-3" d="m223.25,86.46l14.92,28.47,15.17-28.47h12.7l-21.99,39.39v21.14h-11.68v-21.31l-21.91-39.22h12.79Z"/>
      </g>
      <g>
        <path class="cls-2" d="m276.33,146.99v-48.18h19.95c2.08,0,3.99.43,5.73,1.29,1.74.86,3.25,2.03,4.51,3.5,1.27,1.47,2.26,3.1,2.99,4.89.72,1.79,1.09,3.61,1.09,5.46,0,2.62-.58,5.1-1.73,7.43-1.15,2.33-2.77,4.22-4.85,5.67-2.08,1.45-4.53,2.17-7.33,2.17h-15.61v17.78h-4.75Zm4.75-21.99h15.4c1.9,0,3.55-.52,4.95-1.56,1.4-1.04,2.49-2.4,3.26-4.07.77-1.67,1.15-3.48,1.15-5.43s-.45-3.82-1.36-5.5c-.91-1.67-2.09-3-3.56-3.97-1.47-.97-3.09-1.46-4.85-1.46h-15v21.99Z"/>
        <path class="cls-2" d="m347.31,146.99h-4.62v-19.62c0-3.95-.7-6.93-2.1-8.93-1.4-2-3.42-3-6.04-3-1.72,0-3.43.44-5.12,1.31-1.7.88-3.19,2.06-4.48,3.57-1.29,1.5-2.21,3.22-2.75,5.15v21.53h-4.62v-49.54h4.62v22.35c1.4-2.61,3.36-4.69,5.87-6.24,2.51-1.55,5.19-2.33,8.04-2.33,2.04,0,3.77.36,5.19,1.08,1.43.72,2.58,1.77,3.46,3.14.88,1.37,1.53,2.97,1.93,4.79.41,1.82.61,3.88.61,6.17v20.58Z"/>
        <path class="cls-2" d="m354.3,136.88c0-2.2.63-4.1,1.9-5.7,1.27-1.6,3.02-2.83,5.26-3.71,2.24-.88,4.83-1.32,7.77-1.32,1.72,0,3.51.14,5.36.41s3.51.68,4.95,1.22v-2.98c0-2.97-.88-5.33-2.65-7.08-1.76-1.75-4.21-2.63-7.33-2.63-1.9,0-3.77.35-5.6,1.05-1.83.7-3.74,1.73-5.73,3.09l-1.76-3.26c2.31-1.58,4.57-2.77,6.79-3.56,2.22-.79,4.48-1.19,6.79-1.19,4.34,0,7.78,1.24,10.31,3.71,2.53,2.47,3.8,5.89,3.8,10.25v16.25c0,.63.14,1.09.41,1.38.27.29.7.46,1.29.51v3.66c-.5.04-.93.09-1.29.14-.36.04-.63.04-.81,0-1.13-.05-1.99-.41-2.58-1.09s-.91-1.4-.95-2.17l-.07-2.58c-1.58,2.04-3.64,3.61-6.18,4.72-2.53,1.11-5.11,1.66-7.74,1.66-2.26,0-4.31-.48-6.14-1.45-1.83-.97-3.26-2.27-4.28-3.91-1.02-1.64-1.53-3.45-1.53-5.43Zm23.68,2.69c.5-.63.88-1.23,1.15-1.82.27-.58.41-1.1.41-1.55v-5.11c-1.54-.58-3.13-1.03-4.78-1.34-1.65-.31-3.32-.47-4.99-.47-3.3,0-5.97.65-8.01,1.95-2.04,1.3-3.05,3.07-3.05,5.31,0,1.3.34,2.52,1.02,3.67.68,1.14,1.67,2.08,2.99,2.82,1.31.74,2.85,1.11,4.61,1.11,2.22,0,4.29-.43,6.21-1.28,1.92-.85,3.4-1.95,4.44-3.29Z"/>
        <path class="cls-2" d="m411.78,115.71c-3.08.09-5.78.95-8.11,2.58-2.33,1.63-3.97,3.87-4.92,6.72v21.99h-4.62v-35.22h4.34v8.35c1.22-2.49,2.84-4.5,4.85-6.04,2.01-1.54,4.15-2.4,6.41-2.58.45-.04.85-.07,1.19-.07s.62.02.85.07v4.21Z"/>
        <path class="cls-2" d="m470.55,146.99h-4.61v-19.62c0-4.09-.66-7.1-1.97-9.03-1.31-1.93-3.26-2.9-5.84-2.9s-5.06.94-7.16,2.83c-2.1,1.89-3.59,4.32-4.45,7.28v21.44h-4.61v-19.62c0-4.13-.63-7.16-1.9-9.07-1.27-1.91-3.21-2.87-5.84-2.87s-5,.92-7.13,2.76c-2.13,1.84-3.62,4.26-4.48,7.27v21.53h-4.62v-35.22h4.21v8.03c1.49-2.74,3.4-4.86,5.73-6.34,2.33-1.48,4.92-2.23,7.77-2.23s5.32.83,7.13,2.5c1.81,1.66,2.92,3.85,3.33,6.54,1.63-2.97,3.58-5.22,5.87-6.75,2.28-1.53,4.87-2.29,7.77-2.29,1.99,0,3.68.36,5.06,1.08,1.38.72,2.49,1.74,3.33,3.07.84,1.33,1.45,2.93,1.83,4.79.38,1.87.58,3.95.58,6.24v20.58Z"/>
        <path class="cls-2" d="m477.47,136.88c0-2.2.63-4.1,1.9-5.7,1.27-1.6,3.02-2.83,5.26-3.71,2.24-.88,4.83-1.32,7.77-1.32,1.72,0,3.51.14,5.36.41s3.51.68,4.95,1.22v-2.98c0-2.97-.88-5.33-2.65-7.08-1.76-1.75-4.21-2.63-7.33-2.63-1.9,0-3.77.35-5.6,1.05-1.83.7-3.74,1.73-5.73,3.09l-1.76-3.26c2.31-1.58,4.57-2.77,6.79-3.56,2.22-.79,4.48-1.19,6.79-1.19,4.34,0,7.78,1.24,10.31,3.71,2.53,2.47,3.8,5.89,3.8,10.25v16.25c0,.63.14,1.09.41,1.38.27.29.7.46,1.29.51v3.66c-.5.04-.93.09-1.29.14-.36.04-.63.04-.81,0-1.13-.05-1.99-.41-2.58-1.09s-.91-1.4-.95-2.17l-.07-2.58c-1.58,2.04-3.64,3.61-6.18,4.72-2.53,1.11-5.11,1.66-7.74,1.66-2.26,0-4.31-.48-6.14-1.45-1.83-.97-3.26-2.27-4.28-3.91-1.02-1.64-1.53-3.45-1.53-5.43Zm23.68,2.69c.5-.63.88-1.23,1.15-1.82.27-.58.41-1.1.41-1.55v-5.11c-1.54-.58-3.13-1.03-4.78-1.34-1.65-.31-3.32-.47-4.99-.47-3.3,0-5.97.65-8.01,1.95s-3.05,3.07-3.05,5.31c0,1.3.34,2.52,1.02,3.67.68,1.14,1.67,2.08,2.99,2.82,1.31.74,2.85,1.11,4.61,1.11,2.22,0,4.29-.43,6.21-1.28,1.92-.85,3.4-1.95,4.44-3.29Z"/>
      </g>
    </g>
  </g>
</svg>